# xmcd
#
# Track frame offsets: 
#        183
#        13158
#        28983
#        42933
#        57533
#        67808
#        83933
#        89883
#        103783
#        115708
#        127808
#        140058
#        155308
#        166933
#
# Disc length: 2375 seconds
#
# Revision: 0
# Processed by: cddbd v1.5.2PL0 Copyright (c) Steve Scherf et al.
# Submitted via: ExactAudioCopy v0.99pb4
#
DISCID=bf09450e
DTITLE=Compilation - Das Echo der Berge
DYEAR=1900
DGENRE=Volksmusik
TTITLE0=Das Echo der Berge - Kirmes-Karussell
TTITLE1=Sehnsuchtsmelodie (instr.) - Alfons Bauer
TTITLE2=Heilige Berge - Kirmeskarussell
TTITLE3=So a Stückerl heile Welt - Margot Hellwig
TTITLE4=Es läuten die Glocken am Königssee - Lolita
TTITLE5=Kufsteiner Lied - Edith Prock
TTITLE6=erzherzog-Johann-Jodler - Alfons Bauer
TTITLE7=Wann fangt denn endlich d'Musi an - Marianne and Michael
TTITLE8=Die Leut' am Land - Kirmes-Karussell
TTITLE9=Ännchen von Tharau - Flippers
TTITLE10=Titelthema aus der SAT.1-Serie Der Bergdoktor - Michael Gajar
TTITLE10=e
TTITLE11=La Pastorella - Stefan Mross
TTITLE12=Klarinettenmuckl - Henry Arland
TTITLE13=Schönes Dirndl - Karl Moik
EXTD=
EXTT0=
EXTT1=
EXTT2=
EXTT3=
EXTT4=
EXTT5=
EXTT6=
EXTT7=
EXTT8=
EXTT9=
EXTT10=
EXTT11=
EXTT12=
EXTT13=
PLAYORDER=
